<svg width="42" height="41" viewBox="0 0 42 41" fill="none" xmlns="http://www.w3.org/2000/svg">
<path d="M41.8337 20.5C41.8337 9.223 32.5074 0.083313 21.0003 0.083313C9.49321 0.083313 0.166992 9.223 0.166992 20.5C0.166992 30.6924 7.78418 39.1382 17.7451 40.6694V26.4017H12.4554V20.5H17.7451V16.0019C17.7451 10.8858 20.8539 8.05857 25.6146 8.05857C27.8932 8.05857 30.2777 8.45734 30.2777 8.45734V13.4818H27.6491C25.0612 13.4818 24.2555 15.0569 24.2555 16.6719V20.5H30.0335L29.1099 26.4017H24.2555V40.6694C34.2165 39.1382 41.8337 30.6924 41.8337 20.5Z" fill="#1877F2"/>
<path d="M29.1096 26.4017L30.0332 20.5H24.2553V16.6719C24.2553 15.0569 25.0609 13.4818 27.6488 13.4818H30.2774V8.45736C30.2774 8.45736 27.8929 8.05859 25.6143 8.05859C20.8536 8.05859 17.7448 10.8858 17.7448 16.002V20.5H12.4551V26.4017H17.7448V40.6695C18.8068 40.833 19.8933 40.9167 21 40.9167C22.1068 40.9167 23.1933 40.833 24.2553 40.6695V26.4017H29.1096Z" fill="white"/>
</svg>
