<?xml version="1.0" encoding="UTF-8"?>
<svg id="Layer_1" data-name="Layer 1" xmlns="http://www.w3.org/2000/svg" viewBox="0 0 2000 570">
  <defs>
    <style>
      .cls-1 {
        fill: #581237;
      }
    </style>
  </defs>
  <path class="cls-1" d="m902.38,8.06v152.37c-19.1-10.61-39.05-18.67-71.3-18.67-78.94,0-144.3,63.66-144.3,158.73s61.54,158.31,135.82,158.31c33.1,0,61.97-10.19,81.91-28.86v22.49h103.98V8.06h-106.11Zm140.06,444.37h106.95V148.12h-106.95v304.31Zm490.21-310.68c-34.8,0-66.21,12.31-87.86,37.77-20.8-27.59-50.93-37.77-81.49-37.77-27.16,0-55.17,10.61-75.12,28.86v-22.49h-104.83v304.31h106.95v-174.86c0-23.34,15.28-39.9,37.77-39.9,23.77,0,36.5,16.55,36.5,38.62v176.14h105.68v-175.29c0-22.92,16.55-39.47,38.2-39.47,23.77,0,36.08,16.98,36.08,38.62v176.14h104.41v-191.41c0-69.61-47.11-119.26-116.29-119.26h0Zm-497.42-80.64c0,34.38,26.31,60.69,60.69,60.69s61.12-26.31,61.12-60.69S1130.3,0,1095.92,0s-60.69,26.74-60.69,61.12h0Zm-588.67,239.37c0-38.2,23.77-64.94,57.72-64.94s57.72,26.74,57.72,64.94-23.77,64.94-57.72,64.94-57.72-26.74-57.72-64.94h0Zm-106.95,0c0,90.83,70.45,158.73,164.68,158.73s164.68-68.76,164.68-158.73-70.45-158.73-164.68-158.73-164.68,68.76-164.68,158.73h0Zm1437.94,0c0-38.2,23.77-64.94,57.72-64.94s57.72,26.74,57.72,64.94-23.77,64.94-57.72,64.94-57.72-26.74-57.72-64.94h0Zm-106.95,0c0,90.83,70.45,158.73,164.68,158.73s164.68-68.76,164.68-158.73-70.45-158.73-164.68-158.73-164.68,68.76-164.68,158.73h0Zm-876.86,0c0-38.2,23.77-64.94,57.72-64.94s57.72,26.74,57.72,64.94-23.77,64.94-57.72,64.94-57.72-26.74-57.72-64.94h0ZM106.17,570v-129.87c18.67,10.19,39.05,18.67,71.3,18.67,78.94,0,144.3-63.66,144.3-158.73s-61.54-158.31-135.82-158.31c-33.1,0-61.97,10.19-81.91,28.86v-22.49H.06v421.88h106.11Zm108.65-269.51c0,38.2-23.77,64.94-57.72,64.94s-57.72-26.74-57.72-64.94,23.77-64.94,57.72-64.94,57.72,26.74,57.72,64.94Z"/>
</svg>