<svg width="33" height="41" viewBox="0 0 33 41" fill="none" xmlns="http://www.w3.org/2000/svg">
<path d="M22.6407 6.88133C23.8569 5.4059 24.7143 3.39215 24.7143 1.35846C24.7143 1.07933 24.6943 0.800191 24.6545 0.580872C22.6606 0.660624 20.2681 1.89679 18.8525 3.57159C17.716 4.84764 16.6792 6.88133 16.6792 8.91502C16.6792 9.23403 16.739 9.5331 16.759 9.63279C16.8786 9.65273 17.078 9.69261 17.2973 9.69261C19.0718 9.69261 21.3048 8.49632 22.6407 6.88133ZM24.0364 10.1113C21.0656 10.1113 18.6331 11.9257 17.078 11.9257C15.4231 11.9257 13.2698 10.2309 10.6778 10.2309C5.75309 10.2309 0.768555 14.2983 0.768555 21.9546C0.768555 26.7397 2.60286 31.7841 4.89575 35.034C6.84969 37.7855 8.56437 40.0385 11.0367 40.0385C13.4692 40.0385 14.5458 38.4235 17.5764 38.4235C20.6469 38.4235 21.3447 39.9986 24.0364 39.9986C26.7081 39.9986 28.4826 37.5462 30.1773 35.1337C32.0515 32.3623 32.849 29.6706 32.869 29.5311C32.7095 29.4912 27.6053 27.3977 27.6053 21.5558C27.6053 16.4915 31.6129 14.2186 31.8521 14.0391C29.2004 10.2309 25.1529 10.1113 24.0364 10.1113Z" fill="#110B3E"/>
</svg>
