<svg width="37" height="37" viewBox="0 0 37 37" fill="none" xmlns="http://www.w3.org/2000/svg">
<path fill-rule="evenodd" clip-rule="evenodd" d="M36.14 18.9176C36.14 17.6147 36.0231 16.3618 35.8059 15.1591H18.5V22.2669H28.3891C27.9631 24.5638 26.6685 26.5099 24.7224 27.8128V32.4233H30.6609C34.1355 29.2243 36.14 24.5137 36.14 18.9176Z" fill="#4285F4"/>
<path fill-rule="evenodd" clip-rule="evenodd" d="M18.4997 36.875C23.4609 36.875 27.6204 35.2296 30.6606 32.4233L24.7221 27.8128C23.0767 28.9153 20.9719 29.5668 18.4997 29.5668C13.7138 29.5668 9.66296 26.3345 8.21802 21.9913H2.0791V26.7521C5.10262 32.7574 11.3167 36.875 18.4997 36.875Z" fill="#34A853"/>
<path fill-rule="evenodd" clip-rule="evenodd" d="M8.21835 21.9912C7.85085 20.8887 7.64205 19.7111 7.64205 18.5C7.64205 17.2889 7.85085 16.1112 8.21835 15.0087V10.2479H2.07943C0.834943 12.7285 0.125 15.5349 0.125 18.5C0.125 21.465 0.834943 24.2714 2.07943 26.752L8.21835 21.9912Z" fill="#FBBC05"/>
<path fill-rule="evenodd" clip-rule="evenodd" d="M18.4997 7.43324C21.1975 7.43324 23.6196 8.36034 25.5239 10.1811L30.7942 4.91085C27.612 1.9458 23.4526 0.125 18.4997 0.125C11.3167 0.125 5.10262 4.24267 2.0791 10.248L8.21802 15.0087C9.66296 10.6656 13.7138 7.43324 18.4997 7.43324Z" fill="#EA4335"/>
</svg>
